<svg xmlns="http://www.w3.org/2000/svg" version="1.1" xmlns:cvg="http://www.github.com/matterhorn103/cvg" cvg:version="0.1" width="794" height="1123">
<style>
.atom {font-family: "Liberation Sans", "Helvetica", "Arial", sans-serif; font-size: 100px}
.bond {stroke: none; fill: black}
</style>
<rect cvg:role="background" width="100%" height="100%" fill="white"/>
<text cvg:role="atom" x="215" y="240" id="a1" class="atom" visibility="hidden">C</text>
<path cvg:role="bond" cvg:connects="a1,a2" cvg:bond-order="2" d="M 200,115 l 10,0 0,135 -10,0 z m 20,0 l 10,0 0,135 -10,0 z" id="b1" class="bond"/>
<text cvg:role="atom" x="177" y="100" id="a2" class="atom">O</text>
<path cvg:role="bond" cvg:connects="a1,a3" d="M 215,240 l 0,11.5 -130,75 -5,-8.5 z" id="b2" class="bond"/>
<text cvg:role="atom" x="345" y="370" id="a3" class="atom">O</text>
<path cvg:role="bond" cvg:connects="a3,a4" d="M 215,240 l 0,11.5 117,67.5 5,-8.5 z" id="b3" class="bond"/>
<text cvg:role="atom" x="420" y="370" id="a4" class="atom">H</text>
<path cvg:role="bond" cvg:connects="a1,a5" d="M 215,240 l 0,11.5 117,67.5 5,-8.5 z" id="b4" class="bond"/>
<text cvg:role="atom" x="30" y="370" id="a5" class="atom" visibility="hidden">C</text>
<path cvg:role="bond" cvg:connects="a5,a6" d="M 30,70 z" id="b5" class="bond"/>
<text cvg:role="atom" x="30" y="370" id="a6" class="atom" visibility="hidden">H</text>
<path cvg:role="bond" cvg:connects="a5,a7" d="M 30,70 z" id="b6" class="bond"/>
<text cvg:role="atom" x="30" y="370" id="a7" class="atom" visibility="hidden">H</text>
<path cvg:role="bond" cvg:connects="a5,a8" d="M 30,70 z" id="b7" class="bond"/>
<text cvg:role="atom" x="30" y="370" id="a8" class="atom" visibility="hidden">H</text>
</svg>
